<svg xmlns="http://www.w3.org/2000/svg" xmlns:xlink="http://www.w3.org/1999/xlink" width="40.863" height="40.863" viewBox="0 0 40.863 40.863"><defs><style>.a{fill:url(#a);}</style><linearGradient id="a" x1="1.656" y1="-0.797" x2="0.097" y2="1" gradientUnits="objectBoundingBox"><stop offset="0" stop-color="#5efce8"/><stop offset="1" stop-color="#736efe"/></linearGradient></defs><path class="a" d="M32.062,35.332a1.6,1.6,0,0,1-.462,2.209A20.353,20.353,0,0,1,20.44,40.862h-.01A20.431,20.431,0,0,1,5.867,6.1,20.293,20.293,0,0,1,20.294,0h.136A20.257,20.257,0,0,1,32.29,3.823a20.552,20.552,0,0,1,7.441,9.847,1.6,1.6,0,1,1-3.007,1.072,17.347,17.347,0,0,0-16.3-11.55h-.113a17.239,17.239,0,0,0,.116,34.477h.008a17.168,17.168,0,0,0,9.414-2.8,1.6,1.6,0,0,1,2.209.462Zm8.8-13.225a7.261,7.261,0,0,1-13.37,3.927,9.019,9.019,0,1,1-1.156-12.413v-.282a1.6,1.6,0,1,1,3.192,0v8.768a4.07,4.07,0,0,0,8.141,0,1.6,1.6,0,0,1,3.192,0ZM26.257,20.431a5.826,5.826,0,1,0-5.826,5.826A5.833,5.833,0,0,0,26.257,20.431Zm0,0" transform="translate(0.001 0)"/></svg>