<svg xmlns="http://www.w3.org/2000/svg" xmlns:xlink="http://www.w3.org/1999/xlink" width="28.699" height="36.015" viewBox="0 0 28.699 36.015"><defs><style>.a{fill:url(#a);}</style><linearGradient id="a" x1="2.93" y1="-0.409" x2="0.709" y2="1.238" gradientUnits="objectBoundingBox"><stop offset="0" stop-color="#5efce8"/><stop offset="1" stop-color="#736efe"/></linearGradient></defs><g transform="translate(-1105.449 -545.912)"><path class="a" d="M76.479,13.224H61.564V7.44a4.786,4.786,0,0,1,9.566,0v2.689h2.814V7.44a7.6,7.6,0,0,0-15.194,0v5.784h-2.53A4.225,4.225,0,0,0,52,17.445v14.35a4.225,4.225,0,0,0,4.221,4.221H76.479A4.225,4.225,0,0,0,80.7,31.794V17.445A4.225,4.225,0,0,0,76.479,13.224Zm1.407,18.57A1.408,1.408,0,0,1,76.479,33.2H56.221a1.408,1.408,0,0,1-1.407-1.407V17.445a1.408,1.408,0,0,1,1.407-1.407H76.479a1.408,1.408,0,0,1,1.407,1.407Z" transform="translate(1053.449 545.912)"/><path class="a" d="M221.6,286a2.6,2.6,0,0,0-1.409,4.79v3.088a1.407,1.407,0,0,0,2.814,0v-3.085A2.6,2.6,0,0,0,221.6,286Z" transform="translate(898.196 280.03)"/></g></svg>